<svg width="512" height="512" viewBox="0 0 64 64" fill="none" xmlns="http://www.w3.org/2000/svg">
  <rect width="64" height="64" fill="#F8FAFC"/>
  <rect x="4" y="4" width="56" height="56" rx="16" fill="white"/>
  <path d="M20 12H44C48.4 12 52 15.6 52 20V26" stroke="#4285F4" stroke-width="7.5" stroke-linecap="round" stroke-linejoin="round"/>
  <path d="M52 26V44C52 48.4 48.4 52 44 52H37" stroke="#EA4335" stroke-width="7.5" stroke-linecap="round" stroke-linejoin="round"/>
  <path d="M37 52H20C15.6 52 12 48.4 12 44V37" stroke="#FBBC04" stroke-width="7.5" stroke-linecap="round" stroke-linejoin="round"/>
  <path d="M12 37V20C12 15.6 15.6 12 20 12" stroke="#34A853" stroke-width="7.5" stroke-linecap="round" stroke-linejoin="round"/>
  <circle cx="24" cy="25" r="3" fill="#E2E8F0"/>
  <circle cx="24" cy="36" r="3" fill="#E2E8F0"/>
  <path d="M29 35.5L34.25 40.75L44 28" stroke="#1A73E8" stroke-width="5.2" stroke-linecap="round" stroke-linejoin="round"/>
</svg>
